PathFileType	4	(X/Y/Z)	/Users/niels/Desktop/University/Third Semester/Perception and Action/Exam/Gymnastics Motion Tracking/Code for Gym Tracking/Scripts/Analyzed Data/Start Salto/st_salto_good_id17_1_Sports2D/st_salto_good_id17_1_Sports2D_px_person00.trc
DataRate	CameraRate	NumFrames	NumMarkers	Units	OrigDataRate	OrigDataStartFrame	OrigNumFrames
29.75	29.75	6	22	m	29.75	15	120
Frame#	Time	Hip			RHip			RKnee			RAnkle			RBigToe			RSmallToe			RHeel			LHip			LKnee			LAnkle			LBigToe			LSmallToe			LHeel			Neck			Head			Nose			RShoulder			RElbow			RWrist			LShoulder			LElbow			LWrist		
		X1	Y1	Z1	X2	Y2	Z2	X3	Y3	Z3	X4	Y4	Z4	X5	Y5	Z5	X6	Y6	Z6	X7	Y7	Z7	X8	Y8	Z8	X9	Y9	Z9	X10	Y10	Z10	X11	Y11	Z11	X12	Y12	Z12	X13	Y13	Z13	X14	Y14	Z14	X15	Y15	Z15	X16	Y16	Z16	X17	Y17	Z17	X18	Y18	Z18	X19	Y19	Z19	X20	Y20	Z20	X21	Y21	Z21	X22	Y22	Z22
15	0.5042016806722689	0.36155707474221593	-0.556625881996166	0.0	0.34997771604844513	-0.5587242237996947	0.0	0.4597495897454188	-0.632019618311682	0.0	0.5206884045065691	-0.7413825468378763	0.0	0.5834061475215933	-0.744459830986148	0.0	0.5775289746682478	-0.7526380910130043	0.0	0.5208524655543557	-0.7621888967823578	0.0	0.3748969020906428	-0.5576050113281615	0.0	0.46601145195705934	-0.6298686297803647	0.0	0.522397709011286	-0.7365824579076101	0.0	0.5820916843049494	-0.7415790376548409	0.0	0.5781829036079071	-0.73750637565792	0.0	0.5214933211878846	-0.7592768319594336	0.0	0.4405545275585907	-0.42704327602151065	0.0	0.4921016961741491	-0.3562563142832606	0.0	0.4900574851127095	-0.40124540476470916	0.0	0.41537202417208846	-0.4183743646989177	0.0	0.44605889532359555	-0.3835857019476612	0.0	0.5041757321965159	-0.3434678693360838	0.0	0.4623869303425827	-0.444044739657551	0.0	0.532428204187368	-0.45553425976352574	0.0	0.5995253679127894	-0.43785534326280284	0.0
16	0.5378151260504201	0.39870384748397203	-0.5655290121065559	0.0	0.38780179371563434	-0.5674621544733858	0.0	0.48911470938460955	-0.6488661004299218	0.0	0.5544454513251352	-0.7580568399040075	0.0	0.6167471253299783	-0.760975725799293	0.0	0.6107485372332139	-0.7689224411674832	0.0	0.5552259103159765	-0.7783692128008456	0.0	0.4106530203460998	-0.5672238995052604	0.0	0.4959822122996683	-0.6460870464863167	0.0	0.5598121405297865	-0.7545061509750083	0.0	0.6199587248946886	-0.7589765050355335	0.0	0.6161705655531176	-0.7548836564730805	0.0	0.5598003466065028	-0.7765254786738949	0.0	0.47338024677751905	-0.4337281453324007	0.0	0.5273200206925962	-0.364466596960069	0.0	0.5231352969949405	-0.40905646692087383	0.0	0.4510860749173014	-0.42616754493127934	0.0	0.4906705350564514	-0.3809066058393642	0.0	0.5480893710473707	-0.3318385153900993	0.0	0.49489346164543657	-0.44917521187870624	0.0	0.5649008287333829	-0.448162398109957	0.0	0.6276386014678332	-0.4189184822648408	0.0
17	0.5714285714285714	0.4327199986469549	-0.5749918685291363	0.0	0.4226865709605622	-0.5769569585045573	0.0	0.51659003086769	-0.6650002993010738	0.0	0.5813590905680791	-0.7747214922328459	0.0	0.6417198269969214	-0.7796644642363403	0.0	0.6354437175841756	-0.7869465437489115	0.0	0.5819542190482931	-0.7945605170533636	0.0	0.44304034227473815	-0.5774738734584309	0.0	0.5231722637702878	-0.662753189340568	0.0	0.5871357017355362	-0.7725508667662077	0.0	0.646078104158084	-0.7787378267373299	0.0	0.6422864209932477	-0.7748466019216768	0.0	0.586712720678597	-0.7931762386334746	0.0	0.5028343487529741	-0.439744271047147	0.0	0.55837183426632	-0.37127706943695343	0.0	0.5528050081133291	-0.41595731730504554	0.0	0.4830533656001315	-0.43343038871975015	0.0	0.5274792997908456	-0.3790204899791488	0.0	0.5815432799446152	-0.32268319799942147	0.0	0.5234222836073542	-0.45397107017446425	0.0	0.5919040425579174	-0.44038465314926517	0.0	0.6488638922748428	-0.4011761037442754	0.0
18	0.6050420168067226	0.464223499947893	-0.5845466031034413	0.0	0.4552694215063895	-0.586744268800299	0.0	0.5428405622107163	-0.6799922293945114	0.0	0.6019642619137768	-0.790797920092998	0.0	0.6584762617252	-0.7990353481651339	0.0	0.6516924158064064	-0.8054126943088527	0.0	0.6016622540459478	-0.8100119468354615	0.0	0.4729911579571851	-0.5877931373783686	0.0	0.5486898101220068	-0.6785733512849647	0.0	0.6066286706300105	-0.7898032890753737	0.0	0.6625881817740459	-0.7989870836294841	0.0	0.6587094373207235	-0.7955032628697688	0.0	0.6048052879467642	-0.8086940440279539	0.0	0.5300852361650777	-0.44529077671941847	0.0	0.5861277066242494	-0.3767444860322947	0.0	0.5800045965380238	-0.4219028245289206	0.0	0.5127911822033393	-0.4403097094703495	0.0	0.5591747638337436	-0.3783748950038248	0.0	0.608484104516231	-0.3161388873775883	0.0	0.5487877325092558	-0.4581707883078957	0.0	0.6146617089898156	-0.4326345533780266	0.0	0.665098684148439	-0.38475860514311894	0.0
19	0.6386554621848739	0.493417849147552	-0.5933482908068866	0.0	0.48566919557137783	-0.5958239044256898	0.0	0.5677898628891669	-0.6930497922222032	0.0	0.6166563471163733	-0.8051818600770327	0.0	0.6671945075858234	-0.8170217095105526	0.0	0.6597256809739183	-0.822424718544372	0.0	0.6149807728175212	-0.823532708937958	0.0	0.5008871429447037	-0.5972263813151131	0.0	0.5727366419084235	-0.6923366132741112	0.0	0.6198548392100596	-0.8050056437820201	0.0	0.6709504037158834	-0.8175526234162932	0.0	0.666988961964946	-0.8146702151534576	0.0	0.6160400466456313	-0.8220507620882822	0.0	0.5560067570396834	-0.4501913794667059	0.0	0.6115108303445503	-0.3811993421474197	0.0	0.6053169127356441	-0.42692356183245644	0.0	0.541227572036535	-0.44659167584281323	0.0	0.5882894452805828	-0.37898628509918303	0.0	0.6326303583693657	-0.3121199105292767	0.0	0.5718831194689745	-0.4612863076489273	0.0	0.6348488731669654	-0.42523011432220326	0.0	0.6793337334215915	-0.3695320763038234	0.0
20	0.6722689075630252	0.5202659956370769	-0.6002393020905554	0.0	0.5137438118786338	-0.6028942678219998	0.0	0.5908454614328494	-0.7032460026829431	0.0	0.6260924946907059	-0.8166708314197414	0.0	0.6688983687700474	-0.8318421499063292	0.0	0.6607081065804415	-0.8362739541899497	0.0	0.6228628502786447	-0.8340525673664994	0.0	0.5267328418985687	-0.6045318052216923	0.0	0.5948650967210574	-0.7029768937685199	0.0	0.6280697636468259	-0.816971529589765	0.0	0.6727156369174166	-0.8326832096048353	0.0	0.6687635598609276	-0.8305420746948504	0.0	0.6220602561169486	-0.8322606722241298	0.0	0.5812291052079989	-0.45396602014309934	0.0	0.6354411373183935	-0.3849147459134807	0.0	0.6292257964670692	-0.43080631964512295	0.0	0.5688082847072352	-0.4516715009315872	0.0	0.6167187823769292	-0.38057575557438733	0.0	0.6570472572098676	-0.3106483065469491	0.0	0.5937655222130777	-0.46284231125520875	0.0	0.6543455722786479	-0.41840743106747796	0.0	0.6948507248351882	-0.35615267919607657	0.0
